<?xml version="1.0" standalone="no"?>
<!DOCTYPE svg PUBLIC "-//W3C//DTD SVG 20010904//EN"
 "http://www.w3.org/TR/2001/REC-SVG-20010904/DTD/svg10.dtd">
<svg version="1.0" xmlns="http://www.w3.org/2000/svg"
 width="16.000000pt" height="16.000000pt" viewBox="0 0 16.000000 16.000000"
 preserveAspectRatio="xMidYMid meet">
<g transform="translate(0.000000,16.000000) scale(0.001042,-0.001042)"
fill="#000000" stroke="none">
<path d="M3660 9237 c-1366 -3152 -2488 -5742 -2494 -5755 -9 -21 6 -39 182
-215 l192 -192 1918 960 1917 960 1263 2898 1262 2897 -856 2038 c-471 1120
-866 2061 -878 2089 l-22 53 -2484 -5733z"/>
<path d="M6722 6531 c-1371 -3162 -2492 -5753 -2492 -5758 0 -4 86 -94 190
-198 l190 -190 2303 1151 2302 1151 2302 -1151 2303 -1151 192 192 c187 187
192 193 182 220 -24 63 -4968 11469 -4974 11476 -4 4 -1128 -2579 -2498 -5742z"/>
</g>
</svg>
