<svg width="256px" height="256px" viewBox="0 0 24 24" xmlns="http://www.w3.org/2000/svg">
 <g>
  <path fill="darkslategray" d="M10,2 l-6.5,15 0.5,0.5 L9,15 L12.29,7.45z"/>
  <path fill="darkslategray" d="M14,5.5 l-6.5,15 0.5,0.5 6.0,-3 l6,3 0.5,-0.5z"/>
  <path fill="darkslategray" d="M14 4.5
        c 0 1.8 1.2 3 3 3
        c 1.8 0 3 -1.2 3 -3
        c 0 -1.8 -1.2 -3 -3 -3
        c -1.8 0 -3 1.2 -3 3
        m 1 0
        c 0 -1.3 0.7 -2 2 -2
        c 1.3 0 2 0.7 2 2
        c 0 1.3 -0.7 2 -2 2
        c -1.3 0 -2 -0.7 -2 -2
        z"/>
  <path fill="darkslategray" d="M14.5 4.8        m -2 0.5 l 2 -2 l 2 2        z"/>
  <path fill="darkslategray" d="M19.5 3.3        m -2 0.5 l 2 2 l 2 -2        z"/>
 </g>
</svg>