<?xml version="1.0" standalone="no"?>
<!DOCTYPE svg PUBLIC "-//W3C//DTD SVG 20010904//EN"
 "http://www.w3.org/TR/2001/REC-SVG-20010904/DTD/svg10.dtd">
<svg version="1.0" xmlns="http://www.w3.org/2000/svg"
 width="16.000000pt" height="16.000000pt" viewBox="0 0 16.000000 16.000000"
 preserveAspectRatio="xMidYMid meet">
<metadata>
Created by potrace 1.11, written by Peter Selinger 2001-2013
</metadata>
<g transform="translate(0.000000,16.000000) scale(0.001563,-0.001563)"
fill="#000000" stroke="none">
<path d="M4890 10230 c-14 -4 -64 -8 -112 -9 -48 -1 -122 -6 -165 -11 -43 -6
-116 -15 -163 -21 -143 -17 -368 -58 -535 -98 -381 -91 -742 -225 -1110 -411
-978 -496 -1749 -1267 -2245 -2245 -53 -104 -119 -244 -147 -310 -429 -1019
-520 -2120 -264 -3190 174 -726 519 -1425 995 -2015 449 -557 1013 -1011 1661
-1340 969 -491 2036 -658 3110 -489 521 83 1016 244 1500 489 978 496 1749
1267 2245 2245 491 969 658 2036 489 3110 -138 871 -510 1704 -1073 2405 -572
711 -1364 1275 -2231 1588 -458 165 -886 256 -1385 294 -180 13 -539 19 -570
8z m-655 -2019 c132 -17 276 -36 320 -41 44 -6 224 -28 400 -50 176 -23 356
-45 400 -50 90 -11 210 -26 270 -34 215 -30 706 -90 730 -88 17 0 421 67 899
147 478 80 875 145 883 145 11 0 13 -478 13 -2870 l0 -2870 -22 -5 c-13 -3
-376 -64 -808 -136 -432 -71 -834 -139 -895 -150 -90 -17 -120 -19 -165 -10
-30 5 -98 15 -150 21 -52 6 -160 20 -240 30 -80 10 -188 23 -240 30 -52 6
-126 15 -165 20 -38 6 -146 19 -240 30 -93 12 -201 25 -240 30 -76 11 -274 35
-400 50 -44 6 -116 14 -160 20 -104 14 -218 28 -330 41 -49 6 -109 14 -133 19
-35 6 -218 -22 -934 -141 -491 -82 -898 -149 -905 -149 -11 0 -13 508 -13
2870 l0 2870 23 5 c12 3 414 70 892 150 479 80 875 147 880 150 14 6 61 2 330
-34z"/>
<path d="M3899 7926 c-4 -4 -33 -11 -65 -17 -83 -15 -141 -26 -201 -38 -29 -6
-77 -16 -105 -21 -29 -6 -71 -15 -93 -20 -22 -4 -66 -13 -98 -19 -31 -5 -62
-13 -68 -16 -8 -6 126 -159 231 -265 14 -14 47 -50 74 -80 28 -30 98 -107 156
-170 59 -63 123 -133 143 -155 19 -22 37 -38 39 -35 6 9 -7 842 -13 836z"/>
<path d="M7819 7926 c-3 -3 -40 -12 -84 -20 -44 -9 -100 -20 -125 -25 -25 -6
-72 -15 -105 -21 -33 -7 -78 -16 -100 -21 -22 -5 -89 -18 -150 -29 -60 -12
-126 -25 -145 -30 -19 -5 -64 -14 -100 -20 -36 -6 -83 -15 -105 -20 -22 -6
-89 -19 -150 -30 -60 -12 -126 -25 -145 -30 -19 -5 -66 -14 -105 -21 -38 -6
-80 -15 -93 -20 -13 -5 -34 -9 -47 -9 l-25 0 0 -1350 c0 -742 3 -1350 6 -1350
3 0 25 14 49 30 24 17 48 30 54 30 6 0 11 4 11 9 0 5 8 11 18 14 17 6 72 37
82 47 3 3 15 11 28 18 12 6 32 18 45 25 12 6 24 14 27 17 3 3 15 11 28 18 12
6 32 18 45 25 12 6 24 14 27 17 5 5 13 10 89 52 20 11 48 29 63 39 14 11 31
19 37 19 6 0 11 5 11 10 0 6 5 10 11 10 5 0 27 11 47 25 20 14 40 25 44 25 9
0 73 -108 80 -137 4 -14 2 -23 -5 -23 -7 0 -111 -57 -232 -126 -121 -70 -245
-140 -275 -157 -30 -16 -67 -38 -82 -49 -14 -10 -29 -18 -32 -18 -4 0 -36 -18
-72 -40 -36 -22 -70 -40 -74 -40 -22 0 -33 -141 -12 -162 8 -8 115 41 157 72
9 7 340 199 445 258 25 14 62 36 82 49 21 12 40 23 42 23 5 0 105 59 134 78 7
5 15 19 17 32 3 13 12 28 20 33 18 10 46 53 105 162 23 44 46 85 50 90 4 6 27
46 50 90 81 150 88 160 126 183 22 13 47 25 57 29 9 3 17 9 17 13 0 4 8 10 18
13 17 6 72 37 82 47 3 3 19 12 35 20 17 8 33 19 37 25 11 14 10 2105 0 2105
-5 0 -11 -2 -13 -4z"/>
<path d="M2480 7640 c-8 -5 -25 -10 -37 -10 l-23 0 0 -1950 c0 -1072 2 -1950
5 -1950 6 0 48 23 55 30 3 3 14 10 25 16 48 26 70 39 75 44 3 3 15 11 28 18
12 6 32 18 45 25 12 6 24 14 27 17 3 3 15 11 28 18 12 6 32 18 45 25 12 6 24
14 27 17 3 3 14 10 25 16 48 26 70 39 75 44 5 5 27 18 75 44 11 6 22 13 25 16
5 5 27 18 75 44 11 6 22 13 25 16 5 5 27 18 75 44 11 6 22 13 25 16 3 3 15 11
28 18 12 6 32 18 45 25 12 6 24 14 27 17 3 3 14 10 25 16 48 26 70 39 75 44 3
3 15 11 28 18 12 6 32 18 45 25 12 6 24 14 27 17 5 5 13 10 89 52 20 11 48 29
63 39 14 11 29 19 33 19 3 0 26 14 50 30 24 17 48 30 54 30 6 0 11 5 11 10 0
6 5 10 11 10 6 0 30 14 54 30 24 17 48 30 54 30 6 0 11 6 11 13 4 356 -2 1563
-8 1572 -4 7 -79 88 -167 181 -88 93 -194 204 -235 248 -41 44 -91 96 -110
116 -19 19 -96 101 -170 180 -74 80 -155 165 -180 190 -25 25 -67 70 -94 100
-28 30 -127 135 -220 233 -94 99 -175 185 -179 193 -9 16 -45 18 -67 4z"/>
<path d="M4135 7017 c-118 -64 -175 -166 -175 -311 0 -95 7 -120 65 -225 23
-42 63 -116 90 -166 27 -49 57 -105 67 -123 10 -18 18 -37 18 -42 0 -22 41
-50 73 -50 27 1 36 7 60 46 15 25 27 49 27 55 0 5 3 9 8 9 4 0 13 15 21 33 8
17 17 34 20 37 3 3 16 23 27 45 12 22 32 60 45 85 13 25 26 47 29 50 3 3 20
34 38 69 30 61 32 69 32 176 0 98 -3 117 -24 160 -32 63 -89 120 -150 150 -43
21 -63 25 -140 24 -73 -1 -99 -5 -131 -22z m205 -218 c35 -20 80 -84 80 -113
0 -26 -33 -77 -64 -101 -26 -20 -45 -25 -89 -25 -53 0 -59 3 -102 43 -37 36
-45 50 -45 80 0 20 5 37 10 37 6 0 10 7 10 15 0 16 32 51 66 72 30 19 93 15
134 -8z"/>
<path d="M7808 5200 c-10 -9 -30 -23 -45 -31 -16 -8 -64 -36 -108 -63 -44 -27
-93 -56 -110 -66 -16 -9 -84 -50 -150 -90 -66 -40 -134 -80 -151 -90 -17 -10
-62 -37 -100 -60 -38 -24 -85 -51 -104 -62 -19 -11 -47 -29 -62 -39 -14 -11
-28 -19 -31 -19 -3 0 -65 -37 -138 -81 -74 -45 -150 -90 -169 -101 -19 -11
-47 -29 -62 -39 -14 -11 -29 -19 -33 -19 -3 0 -26 -13 -50 -30 -24 -16 -46
-30 -50 -30 -3 0 -33 -18 -66 -40 -54 -36 -71 -42 -152 -51 -51 -6 -123 -14
-162 -19 -38 -5 -110 -14 -160 -20 -49 -6 -124 -15 -165 -21 -41 -5 -111 -13
-155 -19 -44 -5 -114 -14 -155 -19 -41 -5 -115 -15 -165 -21 -49 -6 -121 -15
-160 -20 -215 -27 -257 -32 -325 -40 -41 -5 -112 -14 -157 -20 -46 -5 -120
-15 -165 -20 -46 -6 -114 -15 -153 -20 -183 -24 -256 -32 -326 -38 -62 -6 -86
-13 -130 -41 -30 -19 -70 -43 -89 -54 -19 -10 -47 -28 -62 -38 -14 -11 -28
-19 -31 -19 -2 0 -87 -50 -188 -111 -101 -61 -197 -119 -214 -129 -16 -9 -84
-50 -150 -90 -66 -40 -136 -81 -155 -92 -19 -11 -47 -29 -62 -39 -14 -11 -29
-19 -33 -19 -3 0 -26 -13 -50 -30 -24 -16 -46 -30 -50 -30 -4 0 -26 -13 -50
-30 -24 -16 -46 -30 -50 -30 -4 0 -26 -13 -50 -30 -24 -16 -46 -30 -50 -30 -4
0 -25 -13 -48 -28 -23 -15 -54 -34 -69 -41 -14 -7 -29 -23 -32 -35 -3 -11 -6
-148 -6 -303 0 -284 1 -289 33 -284 4 1 346 69 760 152 732 147 754 151 817
140 36 -5 112 -15 170 -21 58 -6 128 -15 155 -20 28 -5 79 -12 115 -15 62 -6
122 -14 283 -34 139 -18 301 -39 477 -60 112 -14 238 -29 330 -41 41 -6 111
-14 155 -20 44 -5 116 -14 160 -20 44 -6 116 -15 160 -20 123 -14 235 -29 285
-37 34 -6 83 0 205 25 88 18 194 39 235 47 41 8 109 21 150 30 184 37 482 97
555 111 44 8 150 29 235 47 l155 32 3 1201 c2 1265 3 1236 -40 1194z"/>
</g>
</svg>
